# xmcd
#
# Track frame offsets:
# 150
# 30843
# 52253
# 82087
# 101214
# 126367
# 158708
# 180509
# 196417
# 217195
# 250874
# 272788
# 311908
#
# Disc length: 4443 seconds
#
#
# Revision: 13
# Processed by: cddbd v1.5.2PL0 Copyright (c) Steve Scherf et al.
# Submitted via: FreeRIP 2.52 
#
DISCID=c111590d
DTITLE=Joaquín Sabina - 19 dias y 500 noches
DYEAR=1999
DGENRE=Blues
TTITLE0=Ahora que..
TTITLE1=19 días y 500 noches
TTITLE2=Barbi Superestar
TTITLE3=Una canción para la Magdalena
TTITLE4=Dieguitos y Mafaldas
TTITLE5=A mis cuarenta y diez
TTITLE6=El caso de la rubia platino
TTITLE7=Donde habita el olvido
TTITLE8=Cerrado por derribo
TTITLE9=Pero qué hermosas eran
TTITLE10=De purísima y oro
TTITLE11=Como te digo una "co" te digo la "o"
TTITLE12=Noches de boda
EXTD=YEAR: 1999
EXTT0=
EXTT1=
EXTT2=
EXTT3=
EXTT4=
EXTT5=
EXTT6=
EXTT7=
EXTT8=
EXTT9=
EXTT10=
EXTT11=
EXTT12=
PLAYORDER=
